M48
; DRILL file KiCad 10.0.6 date 2026-10-07T16:16:34
; FORMAT={-:-/ absolute / metric / decimal}
; #@! TF.CreationDate,2026-10-07T16:16:34+05:30
; #@! TF.GenerationSoftware,Kicad,Pcbnew,10.0.6
; #@! TF.FileFunction,Plated,1,2,PTH
FMAT,2
METRIC
; #@! TA.AperFunction,Plated,PTH,ComponentDrill
T1C0.700
; #@! TA.AperFunction,Plated,PTH,ComponentDrill
T2C0.800
; #@! TA.AperFunction,Plated,PTH,ComponentDrill
T3C0.889
; #@! TA.AperFunction,Plated,PTH,ComponentDrill
T4C1.000
; #@! TA.AperFunction,Plated,PTH,ComponentDrill
T5C1.500
%
G90
G05
T1
X153.38Y-53.0
X161.0Y-53.0
T2
X152.38Y-59.5
X154.92Y-59.5
X157.46Y-59.5
X160.0Y-59.5
T3
X177.425Y-69.0
X177.425Y-71.54
X177.425Y-74.08
X177.425Y-76.62
X177.425Y-79.16
X177.425Y-81.7
X177.425Y-84.24
X192.665Y-69.0
X192.665Y-71.54
X192.665Y-74.08
X192.665Y-76.62
X192.665Y-79.16
X192.665Y-81.7
X192.665Y-84.24
T4
X152.514Y-66.5
X155.054Y-66.5
X157.594Y-66.5
X160.134Y-66.5
X174.0Y-94.42
X174.0Y-96.96
X174.0Y-99.5
X174.0Y-102.04
X174.0Y-104.58
X174.0Y-107.12
X174.0Y-109.66
X174.0Y-112.2
T5
X127.27Y-73.46
X133.62Y-70.92
X146.61Y-101.46
X152.96Y-98.92
M30
